# xmcd CD database file
#
# Track frame offsets:
#	150
#	18795
#	35802
#	57865
#	74855
#	94655
#	112562
#	132427
#	148997
#	177397
#	197662
#	218817
#
# Disc length: 3210 seconds
#
# Revision: 0
# Processed by: cddbd v1.5.1PL0 Copyright (c) Steve Scherf et al.
# Submitted via: cdripper 1.0.7
#
DISCID=b30c880c
DTITLE=Various Artist - Blues Across America: The Dallas Scene
DYEAR=1997
DGENRE=Blues
TTITLE0=Henry Qualls - Squirrel Sandwich
TTITLE1=Henry Qualls - What You Gonna Do?
TTITLE2=Henry Qualls - Elmo Boogie
TTITLE3=F Moore - Caledonia
TTITLE4=Big Al Dupree - Waitin' on My Rider
TTITLE5=Big Al Dupree - Low-Down Dirty Shame
TTITLE6=Big Al Dupree - Positive Thinking
TTITLE7=Big Al Dupree - Early This Mornin'
TTITLE8=Charles Young - Jones, Andrew "Jr. Boy" - B.B. King/Little Joe Blue Medley: Payin'
TTITLE9=Charles Young - Jones, Andrew "Jr. Boy" - I'm Just Your Fool
TTITLE10=Charles Young - Jones, Andrew "Jr. Boy" - Please Accept My Love
TTITLE11=Charles Young - Jones, Andrew "Jr. Boy" - Big Leg Woman
EXTD=YEAR: 1997
EXTT0=
EXTT1=
EXTT2=
EXTT3=
EXTT4=
EXTT5=
EXTT6=
EXTT7=
EXTT8=
EXTT9=
EXTT10=
EXTT11=
PLAYORDER=
